<mxfile host="app.diagrams.net" modified="2023-09-05T20:11:39.657Z" agent="Mozilla/5.0 (Windows NT 10.0; Win64; x64) AppleWebKit/537.36 (KHTML, like Gecko) Chrome/116.0.0.0 Safari/537.36" etag="zAZJrkGLW-XN9xKFqCxM" version="21.7.2" type="device">
  <diagram name="Página-1" id="_D7JHZr-YJKnToHDmIPc">
    <mxGraphModel dx="880" dy="896" grid="0" gridSize="10" guides="1" tooltips="1" connect="1" arrows="1" fold="1" page="0" pageScale="1" pageWidth="827" pageHeight="1169" math="0" shadow="0">
      <root>
        <mxCell id="0" />
        <mxCell id="1" parent="0" />
        <mxCell id="9uRJ6iCAjskDWsVBWSy3-19" style="edgeStyle=none;curved=1;rounded=0;orthogonalLoop=1;jettySize=auto;html=1;exitX=0.5;exitY=1;exitDx=0;exitDy=0;exitPerimeter=0;entryX=0.502;entryY=0.063;entryDx=0;entryDy=0;entryPerimeter=0;fontSize=12;startSize=8;endSize=8;dashed=1;" edge="1" parent="1" source="9uRJ6iCAjskDWsVBWSy3-1" target="9uRJ6iCAjskDWsVBWSy3-7">
          <mxGeometry relative="1" as="geometry" />
        </mxCell>
        <mxCell id="9uRJ6iCAjskDWsVBWSy3-1" value="" style="shape=folder;fontStyle=1;spacingTop=10;tabWidth=40;tabHeight=14;tabPosition=left;html=1;whiteSpace=wrap;fontSize=16;" vertex="1" parent="1">
          <mxGeometry x="43" y="-7" width="434" height="159" as="geometry" />
        </mxCell>
        <mxCell id="9uRJ6iCAjskDWsVBWSy3-2" value="Presentación" style="text;align=center;fontStyle=1;verticalAlign=middle;spacingLeft=3;spacingRight=3;strokeColor=none;rotatable=0;points=[[0,0.5],[1,0.5]];portConstraint=eastwest;html=1;fontSize=16;" vertex="1" parent="1">
          <mxGeometry x="195" y="10" width="80" height="26" as="geometry" />
        </mxCell>
        <mxCell id="9uRJ6iCAjskDWsVBWSy3-3" value="Interfaz administrador" style="shape=module;align=left;spacingLeft=20;align=center;verticalAlign=top;whiteSpace=wrap;html=1;fontSize=16;" vertex="1" parent="1">
          <mxGeometry x="60" y="60" width="127" height="50" as="geometry" />
        </mxCell>
        <mxCell id="9uRJ6iCAjskDWsVBWSy3-4" value="Interfaz secretario" style="shape=module;align=left;spacingLeft=20;align=center;verticalAlign=top;whiteSpace=wrap;html=1;fontSize=16;" vertex="1" parent="1">
          <mxGeometry x="198" y="60" width="127" height="50" as="geometry" />
        </mxCell>
        <mxCell id="9uRJ6iCAjskDWsVBWSy3-5" value="Interfaz sacerdote" style="shape=module;align=left;spacingLeft=20;align=center;verticalAlign=top;whiteSpace=wrap;html=1;fontSize=16;" vertex="1" parent="1">
          <mxGeometry x="336" y="60" width="127" height="50" as="geometry" />
        </mxCell>
        <mxCell id="9uRJ6iCAjskDWsVBWSy3-7" value="" style="shape=folder;fontStyle=1;spacingTop=10;tabWidth=40;tabHeight=14;tabPosition=left;html=1;whiteSpace=wrap;fontSize=16;" vertex="1" parent="1">
          <mxGeometry x="43" y="172" width="434" height="159" as="geometry" />
        </mxCell>
        <mxCell id="9uRJ6iCAjskDWsVBWSy3-9" value="Gestión de usuarios" style="shape=module;align=left;spacingLeft=20;align=center;verticalAlign=top;whiteSpace=wrap;html=1;fontSize=16;" vertex="1" parent="1">
          <mxGeometry x="56" y="199" width="127" height="50" as="geometry" />
        </mxCell>
        <mxCell id="9uRJ6iCAjskDWsVBWSy3-10" value="Gestión de tesoreria" style="shape=module;align=left;spacingLeft=20;align=center;verticalAlign=top;whiteSpace=wrap;html=1;fontSize=16;" vertex="1" parent="1">
          <mxGeometry x="195" y="199" width="127" height="50" as="geometry" />
        </mxCell>
        <mxCell id="9uRJ6iCAjskDWsVBWSy3-11" value="Gestión de eventos" style="shape=module;align=left;spacingLeft=20;align=center;verticalAlign=top;whiteSpace=wrap;html=1;fontSize=16;" vertex="1" parent="1">
          <mxGeometry x="334" y="199" width="127" height="50" as="geometry" />
        </mxCell>
        <mxCell id="9uRJ6iCAjskDWsVBWSy3-12" value="Gestión de actividades" style="shape=module;align=left;spacingLeft=20;align=center;verticalAlign=top;whiteSpace=wrap;html=1;fontSize=16;" vertex="1" parent="1">
          <mxGeometry x="125" y="266" width="127" height="50" as="geometry" />
        </mxCell>
        <mxCell id="9uRJ6iCAjskDWsVBWSy3-13" value="Reportes" style="shape=module;align=left;spacingLeft=20;align=center;verticalAlign=top;whiteSpace=wrap;html=1;fontSize=16;" vertex="1" parent="1">
          <mxGeometry x="271" y="264" width="127" height="50" as="geometry" />
        </mxCell>
        <mxCell id="9uRJ6iCAjskDWsVBWSy3-17" style="edgeStyle=none;curved=1;rounded=0;orthogonalLoop=1;jettySize=auto;html=1;exitX=0;exitY=0;exitDx=115;exitDy=14;exitPerimeter=0;entryX=0.329;entryY=1.013;entryDx=0;entryDy=0;entryPerimeter=0;fontSize=12;startSize=8;endSize=8;dashed=1;" edge="1" parent="1" source="9uRJ6iCAjskDWsVBWSy3-14" target="9uRJ6iCAjskDWsVBWSy3-7">
          <mxGeometry relative="1" as="geometry" />
        </mxCell>
        <mxCell id="9uRJ6iCAjskDWsVBWSy3-14" value="Base de Datos" style="shape=folder;fontStyle=1;spacingTop=10;tabWidth=40;tabHeight=14;tabPosition=left;html=1;whiteSpace=wrap;fontSize=16;" vertex="1" parent="1">
          <mxGeometry x="43" y="370" width="190" height="75" as="geometry" />
        </mxCell>
        <mxCell id="9uRJ6iCAjskDWsVBWSy3-15" value="Servidor" style="shape=folder;fontStyle=1;spacingTop=10;tabWidth=40;tabHeight=14;tabPosition=left;html=1;whiteSpace=wrap;fontSize=16;" vertex="1" parent="1">
          <mxGeometry x="287" y="368" width="190" height="79" as="geometry" />
        </mxCell>
        <mxCell id="9uRJ6iCAjskDWsVBWSy3-18" value="" style="edgeStyle=none;orthogonalLoop=1;jettySize=auto;html=1;rounded=0;fontSize=12;startSize=8;endSize=8;curved=1;exitX=0.332;exitY=0.165;exitDx=0;exitDy=0;exitPerimeter=0;entryX=0.634;entryY=1.038;entryDx=0;entryDy=0;entryPerimeter=0;dashed=1;" edge="1" parent="1" source="9uRJ6iCAjskDWsVBWSy3-15" target="9uRJ6iCAjskDWsVBWSy3-7">
          <mxGeometry width="120" relative="1" as="geometry">
            <mxPoint x="350" y="378" as="sourcePoint" />
            <mxPoint x="315" y="339" as="targetPoint" />
            <Array as="points" />
          </mxGeometry>
        </mxCell>
      </root>
    </mxGraphModel>
  </diagram>
</mxfile>
